<?xml version="1.0" encoding="utf-8"?>
<!-- Generator: Adobe Illustrator 27.3.1, SVG Export Plug-In . SVG Version: 6.00 Build 0)  -->
<svg version="1.1" id="Layer_1" xmlns="http://www.w3.org/2000/svg" xmlns:xlink="http://www.w3.org/1999/xlink" x="0px" y="0px"
	 viewBox="0 0 36 36" style="enable-background:new 0 0 36 36;" xml:space="preserve">
<style type="text/css">
	.st0{fill:#95A3AC;}
	.st1{fill:#F9A71C;}
</style>
<path class="st0" d="M22,0l-4.8,16.6L8.1,14L22,0L22,0z"/>
<path class="st1" d="M0,13.8l16.6,4.8c-0.9,3-1.7,6.1-2.6,9.2L0,13.8L0,13.8z"/>
<path class="st1" d="M36,22c-1.2-0.3-2.4-0.7-3.6-1l-12.8-3.7l-0.2-0.1l2.6-9.1l1.6,1.6l9.7,9.6C34.2,20.2,35.1,21.1,36,22L36,22z"
	/>
<path class="st0" d="M13.9,35.8c1.6-5.5,3.2-11.1,4.8-16.6l9.2,2.6L13.9,35.8L13.9,35.8z"/>
</svg>
