<svg width="183" height="49" viewBox="0 0 183 49" fill="none" xmlns="http://www.w3.org/2000/svg">
<path d="M181.309 44.543C180.744 45.9303 179.086 46.3919 177.761 45.504L177.98 45.0122C178.476 45.3205 179.061 45.4554 179.643 45.3956C179.788 45.3901 179.931 45.3562 180.063 45.2958C180.195 45.2355 180.314 45.1499 180.412 45.044C180.511 44.9381 180.587 44.8139 180.637 44.6786C180.687 44.5433 180.71 44.3995 180.704 44.2555C180.701 44.1335 180.676 44.013 180.63 43.8998C180.558 43.7329 180.454 43.5816 180.323 43.4548C180.192 43.3279 180.037 43.228 179.867 43.1608C179.549 43.0044 179.211 42.8884 178.898 42.7219C178.041 42.2654 177.738 41.5339 178.072 40.7368C178.173 40.4772 178.346 40.2511 178.571 40.0843C178.796 39.9175 179.063 39.8167 179.343 39.7935C179.786 39.7579 180.231 39.7963 180.66 39.907C181.169 40.0356 181.169 40.1062 180.887 40.5477C180.553 40.4367 180.213 40.3432 179.87 40.2677C179.091 40.1365 178.504 40.6435 178.547 41.3699C178.557 41.5294 178.609 41.6835 178.698 41.8164C178.788 41.9494 178.911 42.0564 179.056 42.1266C179.282 42.2627 179.519 42.3791 179.765 42.4747C180.472 42.7446 181.07 43.123 181.311 43.8872L181.309 44.543Z" fill="#98A5AD"/>
<path d="M123.162 28.385C123.272 27.8099 123.356 27.2625 123.485 26.7303C124.269 23.4984 125.059 20.2689 125.856 17.042C126.191 15.685 126.555 14.3331 126.919 12.9786C126.942 12.8928 127.053 12.7616 127.127 12.7616C128.813 12.749 130.502 12.7616 132.236 12.7616C133.467 17.9501 134.996 23.0654 135.993 28.3244C136.038 28.0268 136.074 27.7292 136.13 27.4315C136.639 24.7579 137.109 22.0817 137.635 19.413C138.063 17.2691 138.548 15.1251 138.999 12.9987C139.034 12.8348 139.072 12.7465 139.253 12.7465H145.418C145.46 12.7514 145.503 12.759 145.545 12.7692C145.387 13.2737 145.237 13.7781 145.082 14.2826C143.095 20.7028 141.111 27.1213 139.131 33.5381C139.117 33.6454 139.061 33.7429 138.974 33.8091C138.888 33.8753 138.779 33.9048 138.671 33.8912H138.653C136.822 33.8761 134.991 33.8912 133.16 33.8912H132.803C131.618 29.2375 130.103 24.6797 129.421 19.8494C129.363 19.9503 129.324 19.9856 129.319 20.0234C128.854 23.5017 127.903 26.8665 126.911 30.2212C126.58 31.3412 126.261 32.4644 125.952 33.5911C125.886 33.8433 125.782 33.8988 125.535 33.8963C123.653 33.8862 121.771 33.8862 119.889 33.8963C119.848 33.9039 119.806 33.9034 119.766 33.8949C119.725 33.8863 119.686 33.8698 119.652 33.8464C119.618 33.8229 119.588 33.793 119.566 33.7582C119.543 33.7235 119.528 33.6847 119.521 33.644C119.519 33.6357 119.519 33.6272 119.521 33.6188C117.681 27.3718 115.837 21.1232 113.989 14.8728C113.959 14.7694 113.926 14.666 113.877 14.5121C113.788 14.6257 113.727 14.6963 113.671 14.7644L108.206 22.5962C108.151 22.6577 108.12 22.7371 108.12 22.8194C108.12 22.9018 108.151 22.9812 108.206 23.0427C110.449 26.5235 112.688 30.0077 114.923 33.4952C114.996 33.6113 115.068 33.7298 115.164 33.8862H107.924C107.859 33.8882 107.794 33.8761 107.733 33.8509C107.673 33.8256 107.619 33.7878 107.575 33.7399C106.445 31.7035 105.321 29.6621 104.206 27.6157C104.068 27.3634 103.951 27.1112 103.814 26.7858C103.738 26.9094 103.695 26.9725 103.661 27.0381C102.519 29.2527 101.376 31.4656 100.233 33.6768C100.201 33.7319 100.156 33.7789 100.102 33.8143C100.048 33.8497 99.987 33.8725 99.9231 33.8811C95.854 33.8912 91.785 33.8912 87.7159 33.8811C87.6586 33.8828 87.6013 33.8769 87.5455 33.8635L87.1386 31.7145C87.0649 31.775 86.9937 31.8431 86.925 31.9112C85.6534 33.3338 84.0309 34.0577 82.1642 34.2923C80.8102 34.492 79.4273 34.3497 78.1435 33.8786C76.8272 33.3667 75.7148 32.4437 74.9742 31.2492C74.2337 30.0547 73.9054 28.6535 74.0389 27.2575C74.311 24.213 76.0225 22.2835 78.7411 21.103C80.3917 20.4291 82.1427 20.0286 83.9241 19.9175C84.771 19.8444 85.6255 19.8166 86.4672 19.7687C86.6656 18.9565 86.2129 17.9526 85.3762 17.4431C84.6587 17.0326 83.8418 16.8241 83.0136 16.8403C80.9215 16.7924 78.8521 17.2788 77.0042 18.2528L76.7499 18.3789C76.6507 18.0409 76.5566 17.718 76.4599 17.3952C76.1726 16.4089 75.8903 15.4227 75.5927 14.439C75.5588 14.3737 75.5523 14.2978 75.5747 14.2279C75.5971 14.1579 75.6466 14.0996 75.7122 14.0657C75.7297 14.0556 75.7486 14.0479 75.7682 14.043C79.0479 12.4994 82.7144 11.9518 86.307 12.4691C88.4789 12.8398 90.3481 13.7302 91.6476 15.5892C92.4203 16.7319 92.8997 18.0446 93.0438 19.413C93.1332 20.1944 93.1782 20.98 93.1786 21.7664C93.1939 24.4501 93.1786 27.1339 93.1913 29.8177C93.1913 30.8619 93.288 31.9036 93.3388 32.9479L93.4151 32.9655C93.466 32.9 93.5245 32.8394 93.5703 32.7713C95.6828 29.6134 97.8021 26.4571 99.9281 23.3025C99.9808 23.2382 100.008 23.1569 100.004 23.0741C100 22.9914 99.9661 22.9129 99.9078 22.8535C97.6664 19.5913 95.4327 16.3291 93.2066 13.0668C93.1506 12.9836 93.0972 12.8979 93.0209 12.7818C93.105 12.7666 93.1899 12.7565 93.2753 12.7516H100.2C100.279 12.7463 100.358 12.7659 100.425 12.8076C100.492 12.8493 100.544 12.9108 100.574 12.9836C101.761 15.062 102.948 17.1379 104.135 19.2113L104.307 19.4938C104.508 19.0952 104.679 18.7371 104.864 18.3864C105.831 16.5704 106.801 14.756 107.774 12.9433C107.801 12.897 107.837 12.8571 107.881 12.8262C107.925 12.7952 107.975 12.7741 108.028 12.7642H120.052C120.098 12.7733 120.143 12.7851 120.187 12.7995L123.162 28.385ZM86.7953 23.8977C86.2867 23.9204 85.8543 23.9331 85.4322 23.9633C84.4361 24.0056 83.4539 24.211 82.5254 24.5712C81.1139 25.1665 80.4908 26.1376 80.6002 27.598C80.6163 28.0508 80.7773 28.4867 81.0599 28.8427C81.3424 29.1987 81.7319 29.4562 82.1718 29.578C82.6418 29.6962 83.1276 29.7397 83.6113 29.7067C85.0431 29.6134 86.4749 28.4253 86.6631 27.0784C86.8004 26.0443 86.7546 24.9899 86.7928 23.8977H86.7953Z" fill="#515E66"/>
<path d="M65.8448 10.7917C65.7482 11.1574 65.649 11.5206 65.5549 11.8839C64.3825 16.3913 62.9329 20.8129 61.5291 25.2522C60.7 27.8755 59.8778 30.4995 59.0623 33.1244C59.0489 33.2232 58.9969 33.3128 58.9173 33.3737C58.8378 33.4346 58.7373 33.462 58.6375 33.4498H53.7547C52.7069 29.6781 51.6583 25.9156 50.6088 22.1624C49.5687 18.4041 48.704 14.6206 47.9283 10.7993C47.574 18.4873 47.2205 26.1804 46.8678 33.8786H40.6702C40.7261 33.0109 40.777 32.1584 40.8304 31.3083C40.9423 29.578 41.0559 27.8477 41.1712 26.1174C41.3322 23.6657 41.4908 21.2123 41.6467 18.7572C41.7764 16.7394 41.9011 14.7215 42.0282 12.7238C42.1842 10.3209 42.341 7.91707 42.4987 5.51245C42.5157 5.34485 42.5225 5.17639 42.519 5.00798C42.5063 4.78602 42.608 4.74062 42.8115 4.74062H51.1734C51.2455 4.73131 51.3185 4.75079 51.3762 4.79477C51.4339 4.83875 51.4716 4.90364 51.4811 4.97519C51.4823 4.98102 51.4823 4.98703 51.4811 4.99285C52.89 9.9114 54.4973 14.7745 55.657 19.7611C56.0359 21.3905 56.3716 23.0401 56.7276 24.662C56.7454 24.7452 56.7683 24.8285 56.7912 24.9142L56.8751 24.9294C56.9187 24.8481 56.9561 24.7638 56.987 24.6771C57.7983 21.61 58.5511 18.5252 59.4335 15.4782C60.3033 12.4817 61.3078 9.52296 62.2539 6.54661C62.4218 6.01944 62.5871 5.48975 62.7625 4.96763C62.785 4.91951 62.8186 4.87731 62.8606 4.84444C62.9025 4.81158 62.9517 4.78897 63.0041 4.77845H71.4627C71.4955 4.78418 71.5279 4.79262 71.5593 4.80368C72.0815 14.4945 72.6028 24.1996 73.1233 33.919H66.6561C66.3458 26.1804 65.9135 18.4974 65.8448 10.7917Z" fill="#515E66"/>
<path d="M164.288 25.4263H150.471C150.58 25.8745 150.718 26.3152 150.885 26.7454C151.465 27.9864 152.541 28.6397 153.8 29.0458C155.018 29.4393 156.274 29.467 157.541 29.4166C159.126 29.3593 160.695 29.0851 162.205 28.6019C162.271 28.5792 162.34 28.564 162.436 28.5388C162.726 30.022 163.016 31.4925 163.314 33.0084C162.904 33.1547 162.505 33.3161 162.093 33.4422C160.245 33.9896 158.332 34.2874 156.404 34.3276C154.57 34.3856 152.765 34.2544 151.018 33.6743C147.226 32.4131 145.056 29.7697 144.405 25.8929C143.921 23.2954 144.264 20.6128 145.387 18.2174C146.839 15.1452 149.202 13.1728 152.597 12.4993C154.587 12.0632 156.66 12.1863 158.583 12.855C161.101 13.758 162.711 15.569 163.649 18.0056C164.374 19.9839 164.635 22.0997 164.412 24.1928C164.387 24.5939 164.331 24.9924 164.288 25.4263ZM158.347 20.9088C158.288 20.4724 158.263 20.0512 158.171 19.6476C157.917 18.5025 157.396 17.5036 156.256 17.0042C153.69 15.8792 150.845 17.428 150.514 20.9113L158.347 20.9088Z" fill="#515E66"/>
<path d="M172.662 2.79842V33.8786H166.068V4.73052L172.662 2.79842Z" fill="#525E66"/>
<path d="M181.225 2.80598V33.8761H174.585V5.06095C174.576 5.01292 174.578 4.96371 174.588 4.91615C174.599 4.86859 174.619 4.82361 174.648 4.78378C174.676 4.74395 174.712 4.71006 174.754 4.68404C174.795 4.65802 174.842 4.64039 174.89 4.63215H174.908C176.869 4.0722 178.822 3.49458 180.777 2.92201C180.915 2.8867 181.072 2.85139 181.225 2.80598Z" fill="#515E66"/>
<path d="M21.5431 0.929376L17.1307 16.1693L8.66455 13.7554L21.4617 0.891541L21.5431 0.929376Z" fill="#95A3AB"/>
<path d="M1.21061 13.5814L16.5916 17.9627C15.7854 20.7549 14.9818 23.5269 14.1603 26.3595L1.16992 13.6621L1.21061 13.5814Z" fill="#F9A61B"/>
<path d="M34.4317 21.0803C33.3077 20.7675 32.1836 20.4598 31.0621 20.1395L19.239 16.7671L19.033 16.6939L21.4566 8.31476L22.9392 9.76006L31.9522 18.5882C32.7999 19.4105 33.6366 20.2336 34.4623 21.0576L34.4317 21.0803Z" fill="#F9A61B"/>
<path d="M14.0686 33.7727C15.5385 28.6977 17.0085 23.6228 18.4886 18.5075L26.9573 20.9264L14.1296 33.8256L14.0686 33.7727Z" fill="#95A3AB"/>
<path d="M168.24 39.8944H168.748C168.766 40.2021 168.781 40.4997 168.802 40.863C169.27 40.1517 169.862 39.7456 170.702 39.7481C171.541 39.7506 172.105 40.2273 172.446 40.9411C172.644 40.6822 172.863 40.4392 173.1 40.2147C174.422 39.1705 176.202 39.8465 176.375 41.5465C176.518 42.9414 176.406 44.3614 176.406 45.7916H175.839C175.839 45.6907 175.823 45.5848 175.823 45.4788V42.1796C175.854 41.6918 175.717 41.2081 175.434 40.8075C174.827 40.0104 173.654 40.0861 173.011 40.9487C172.763 41.2848 172.633 41.6926 172.642 42.109V45.7916H172.032V42.1771C172.029 41.8344 171.973 41.4941 171.866 41.1682C171.814 41.0002 171.728 40.8443 171.614 40.7093C171.501 40.5742 171.361 40.4627 171.204 40.3812C171.047 40.2997 170.875 40.2497 170.699 40.2341C170.522 40.2185 170.344 40.2376 170.175 40.2904C170.062 40.3246 169.954 40.3738 169.855 40.4367C169.547 40.6006 169.292 40.8452 169.115 41.1438C168.939 41.4423 168.849 41.7832 168.855 42.1292V45.7765H168.242L168.24 39.8944Z" fill="#99A6AE"/>
<path d="M128.63 42.1796H126.705V41.7079H129.22C129.22 41.8088 129.241 41.8971 129.241 41.9829V45.161C129.248 45.2069 129.246 45.2537 129.235 45.2989C129.224 45.344 129.204 45.3865 129.176 45.424C129.149 45.4615 129.114 45.4932 129.074 45.5173C129.034 45.5415 128.989 45.5575 128.943 45.5646C127.956 45.8946 126.904 45.9812 125.876 45.8168C125.157 45.7329 124.481 45.4308 123.942 44.9518C123.403 44.4728 123.026 43.8402 122.862 43.1406C122.659 42.5041 122.593 41.832 122.67 41.1685C122.748 40.5051 122.966 39.8654 123.31 39.2915C123.958 38.2246 124.953 37.6722 126.161 37.4704C126.985 37.3314 127.832 37.3876 128.63 37.6344C128.745 37.6697 128.857 37.7151 129.009 37.7706C128.935 37.9421 128.869 38.0909 128.793 38.275C128.122 37.9901 127.391 37.874 126.664 37.937C125.795 37.9562 124.966 38.303 124.345 38.9069C123.724 39.5109 123.359 40.3266 123.323 41.1883C123.262 41.8696 123.34 42.556 123.554 43.2062C123.738 43.7606 124.076 44.2524 124.529 44.6249C124.982 44.9975 125.532 45.2358 126.115 45.3123C126.849 45.4363 127.601 45.4002 128.32 45.2064C128.366 45.202 128.41 45.1887 128.45 45.1673C128.491 45.1459 128.526 45.1167 128.555 45.0816C128.585 45.0465 128.606 45.006 128.62 44.9625C128.633 44.919 128.637 44.8733 128.633 44.8281C128.633 44.8281 128.633 44.8281 128.633 44.8104C128.62 43.9553 128.63 43.0902 128.63 42.1796Z" fill="#97A5AD"/>
<path d="M142.213 42.8178C142.198 43.8746 141.87 44.7927 140.982 45.4284C140.594 45.7086 140.139 45.8832 139.662 45.9349C139.185 45.9866 138.703 45.9136 138.263 45.7231C137.823 45.5325 137.442 45.2312 137.156 44.8489C136.87 44.4667 136.69 44.0168 136.633 43.5442C136.481 42.7043 136.626 41.8378 137.045 41.0925C137.33 40.6036 137.76 40.2146 138.278 39.9791C138.795 39.7437 139.373 39.6735 139.932 39.7783C140.487 39.8754 140.996 40.1429 141.389 40.543C141.782 40.9431 142.038 41.4556 142.122 42.0081C142.162 42.2755 142.185 42.5479 142.213 42.8178ZM141.656 42.8178C141.552 42.3611 141.419 41.9113 141.259 41.4708C141.11 41.1292 140.867 40.8354 140.559 40.6219C140.252 40.4085 139.89 40.2837 139.515 40.2615C139.14 40.2393 138.766 40.3205 138.435 40.4961C138.104 40.6717 137.828 40.9349 137.638 41.2564C137.365 41.7027 137.211 42.2109 137.191 42.7327C137.172 43.2545 137.287 43.7726 137.526 44.2378C138.157 45.5242 139.622 45.8471 140.69 44.9491C141.336 44.3841 141.565 43.6476 141.654 42.8051L141.656 42.8178Z" fill="#97A5AD"/>
<path d="M162.469 42.7749C162.378 44.2126 163.174 45.4637 164.758 45.3956C165.031 45.3897 165.304 45.3661 165.574 45.325C165.832 45.2671 166.087 45.1963 166.337 45.1131C166.576 45.5116 166.559 45.5772 166.119 45.7159C165.413 45.953 164.658 46.0035 163.926 45.8622C163.363 45.7309 162.858 45.4225 162.485 44.9829C162.113 44.5433 161.894 43.9962 161.861 43.4231C161.758 42.6067 161.909 41.7786 162.294 41.0496C163.016 39.738 164.784 39.3117 165.933 40.192C166.554 40.6687 166.762 41.3649 166.846 42.1039C166.859 42.3274 166.859 42.5514 166.846 42.7749H162.469ZM166.228 42.2881C166.167 41.4986 166.002 40.7923 165.249 40.4316C164.949 40.2753 164.609 40.2098 164.272 40.2435C163.934 40.2771 163.614 40.4083 163.352 40.6208C163.1 40.8249 162.894 41.0784 162.745 41.3653C162.597 41.6521 162.51 41.9663 162.49 42.2881H166.228Z" fill="#97A4AC"/>
<path d="M135.507 42.785H131.183C131.023 44.0588 131.773 45.335 133.172 45.3956C133.8 45.4536 134.432 45.3476 135.006 45.0879C135.26 45.5116 135.242 45.5772 134.802 45.7159C134.167 45.9353 133.486 45.9959 132.821 45.8925C132.205 45.8069 131.638 45.5096 131.22 45.0524C130.802 44.5952 130.559 44.0071 130.532 43.3903C130.438 42.5744 130.596 41.7493 130.985 41.0244C131.651 39.8565 133.154 39.3748 134.291 40.0154C134.618 40.2121 134.896 40.4794 135.105 40.7974C135.471 41.3921 135.613 42.0962 135.507 42.785ZM134.889 42.2805C134.889 41.0017 134.167 40.1945 133.07 40.2475C132.053 40.2954 131.122 41.3069 131.222 42.2805H134.889Z" fill="#97A4AC"/>
<path d="M147.2 37.7731C147.127 37.937 147.063 38.0833 146.984 38.2574C146.476 37.9978 145.91 37.8686 145.339 37.8816C144.098 37.927 143.342 39.0191 143.833 40.076C144.026 40.4474 144.344 40.7408 144.731 40.9058C145.13 41.1026 145.56 41.2413 145.946 41.4607C146.346 41.6535 146.712 41.9091 147.03 42.2174C147.272 42.5019 147.437 42.8421 147.512 43.2067C147.586 43.5712 147.567 43.9485 147.456 44.3039C147.345 44.6592 147.146 44.9812 146.877 45.2403C146.608 45.4994 146.277 45.6872 145.916 45.7865C144.996 46.0431 144.013 45.9588 143.152 45.5494C143.049 45.4952 142.949 45.4346 142.854 45.3678L143.091 44.8634C143.734 45.2796 144.501 45.4665 145.265 45.3931C145.721 45.3805 146.154 45.1888 146.467 44.8601C146.781 44.5314 146.951 44.0926 146.938 43.64V43.6274C146.931 43.2918 146.826 42.9655 146.635 42.688C146.445 42.4105 146.177 42.1936 145.865 42.0636C145.313 41.7886 144.723 41.5818 144.189 41.2791C143.205 40.7192 142.839 39.7657 143.228 38.7568C143.365 38.4445 143.568 38.165 143.823 37.937C144.634 37.1778 146.348 37.2182 147.2 37.7731Z" fill="#98A5AD"/>
<path d="M153.011 39.912C152.882 40.2349 152.757 40.5502 152.627 40.8655C151.895 42.6311 151.178 44.432 150.42 46.2002C150.046 47.0729 149.512 47.8448 148.64 48.324C148.177 48.5762 148.146 48.5762 147.994 48.0339C148.139 47.9583 148.291 47.8826 148.436 47.7968C149.178 47.3413 149.736 46.6439 150.016 45.8244C150.058 45.6318 150.036 45.4305 149.952 45.2518C149.273 43.5366 148.581 41.8265 147.892 40.1163L147.8 39.8818C147.938 39.8893 148.077 39.8893 148.215 39.8818C148.401 39.8591 148.485 39.9448 148.548 40.1088C149.153 41.6676 149.761 43.2255 150.372 44.7826C150.394 44.8381 150.42 44.8911 150.455 44.9718L151.244 42.8581C151.559 42.0182 151.88 41.1808 152.195 40.3358C152.386 39.8263 152.383 39.8263 153.011 39.912Z" fill="#97A5AD"/>
<path d="M156.963 40.1466L156.762 40.5578C156.399 40.4543 156.066 40.3358 155.72 40.2702C155.554 40.2376 155.384 40.2412 155.22 40.2809C155.056 40.3205 154.903 40.3952 154.771 40.4997C154.671 40.5733 154.586 40.6657 154.521 40.7718C154.457 40.8779 154.414 40.9956 154.395 41.1181C154.377 41.2406 154.382 41.3655 154.412 41.4858C154.443 41.606 154.496 41.7192 154.57 41.8189C154.64 41.9106 154.726 41.9885 154.825 42.0485C155.14 42.2306 155.466 42.3939 155.801 42.5378C156.003 42.6315 156.2 42.7359 156.391 42.8506C156.691 43.0254 156.926 43.2919 157.061 43.6101C157.196 43.9283 157.223 44.2813 157.139 44.6162C157.057 44.9304 156.885 45.2147 156.645 45.4351C156.405 45.6556 156.106 45.8029 155.783 45.8597C155.224 45.9804 154.642 45.941 154.105 45.7462C153.596 45.5646 153.578 45.5343 153.851 45.0273C154.011 45.1189 154.182 45.1909 154.359 45.2417C154.777 45.327 155.204 45.3659 155.631 45.3578C155.851 45.3376 156.059 45.2478 156.225 45.1016C156.39 44.9554 156.504 44.7605 156.549 44.5456C156.604 44.2985 156.575 44.0402 156.465 43.8117C156.355 43.5832 156.172 43.3976 155.944 43.2844C155.654 43.1179 155.32 43.0322 155.041 42.8506C154.672 42.6505 154.337 42.3952 154.046 42.0939C153.606 41.5541 153.767 40.7015 154.321 40.2122C154.952 39.622 156.236 39.5917 156.963 40.1466Z" fill="#98A5AD"/>
<path d="M158.011 40.3862V39.8818H158.978V39.2638C158.978 38.7341 158.978 38.7341 159.575 38.613V39.8742H161.272V40.3787C160.816 40.3787 160.361 40.3787 159.908 40.3787C159.654 40.3661 159.58 40.4543 159.583 40.7041V44.0613C159.585 44.282 159.606 44.5022 159.644 44.7196C159.66 44.9196 159.755 45.1053 159.908 45.2358C160.062 45.3663 160.261 45.4311 160.463 45.4158H160.488C160.699 45.4158 160.91 45.3956 161.124 45.3855C161.272 45.8345 161.272 45.8345 160.811 45.9228C159.674 46.1372 159.018 45.5671 158.983 44.2757C158.95 43.1179 158.983 41.9577 158.983 40.7999V40.3988L158.011 40.3862Z" fill="#97A4AC"/>
<path d="M34.4623 21.05L34.4981 21.0964L34.4316 21.081L34.4623 21.05Z" fill="#F9A61B"/>
<path d="M1.10881 13.5915L1.09863 13.5738L1.12152 13.5763L1.10881 13.5915Z" fill="#F9A61B"/>
</svg>
